REM DIRINDEX 1\2,1\3,1\4,1\5
REM DIRNAME cjc005,folder01,folder02,folder03,folder04
TITLE ""
FILE "P1Q_j_1635-1648.mp3" MP3
  TRACK 01 AUDIO
    TITLE "3:cjc005_0254"
    INDEX 01 00:00:00
  TRACK 02 AUDIO
    TITLE "0:"
    INDEX 01 00:01:03
  TRACK 03 AUDIO
    TITLE "4:cjc005_0255"
    INDEX 01 00:01:38
  TRACK 04 AUDIO
    TITLE "0:"
    INDEX 01 00:02:65
  TRACK 05 AUDIO
    TITLE "5:cjc005_0256"
    INDEX 01 00:03:14
  TRACK 06 AUDIO
    TITLE "0:"
    INDEX 01 00:05:63
  TRACK 07 AUDIO
    TITLE "3:cjc005_0257"
    INDEX 01 00:06:41
  TRACK 08 AUDIO
    TITLE "0:"
    INDEX 01 00:07:60
  TRACK 09 AUDIO
    TITLE "4:cjc005_0258"
    INDEX 01 00:08:15
  TRACK 10 AUDIO
    TITLE "0:"
    INDEX 01 00:09:26
  TRACK 11 AUDIO
    TITLE "5:cjc005_0259"
    INDEX 01 00:09:53
  TRACK 12 AUDIO
    TITLE "0:"
    INDEX 01 00:12:05
  TRACK 13 AUDIO
    TITLE "3:cjc005_0260"
    INDEX 01 00:12:60
  TRACK 14 AUDIO
    TITLE "0:"
    INDEX 01 00:14:68
  TRACK 15 AUDIO
    TITLE "4:cjc005_0261"
    INDEX 01 00:15:19
  TRACK 16 AUDIO
    TITLE "0:"
    INDEX 01 00:17:37
  TRACK 17 AUDIO
    TITLE "5:cjc005_0262"
    INDEX 01 00:17:59
  TRACK 18 AUDIO
    TITLE "0:"
    INDEX 01 00:20:61
  TRACK 19 AUDIO
    TITLE "3:cjc005_0263"
    INDEX 01 00:21:45
  TRACK 20 AUDIO
    TITLE "0:"
    INDEX 01 00:23:03
  TRACK 21 AUDIO
    TITLE "4:cjc005_0264"
    INDEX 01 00:23:34
  TRACK 22 AUDIO
    TITLE "0:"
    INDEX 01 00:24:51
  TRACK 23 AUDIO
    TITLE "5:cjc005_0265"
    INDEX 01 00:24:74
  TRACK 24 AUDIO
    TITLE "0:"
    INDEX 01 00:28:08
  TRACK 25 AUDIO
    TITLE "3:cjc005_0266"
    INDEX 01 00:28:62
  TRACK 26 AUDIO
    TITLE "0:"
    INDEX 01 00:30:10
  TRACK 27 AUDIO
    TITLE "4:cjc005_0267"
    INDEX 01 00:30:36
  TRACK 28 AUDIO
    TITLE "0:"
    INDEX 01 00:31:63
  TRACK 29 AUDIO
    TITLE "5:cjc005_0268"
    INDEX 01 00:32:17
  TRACK 30 AUDIO
    TITLE "0:"
    INDEX 01 00:37:69
  TRACK 31 AUDIO
    TITLE "3:cjc005_0269"
    INDEX 01 00:38:51
  TRACK 32 AUDIO
    TITLE "0:"
    INDEX 01 00:40:01
  TRACK 33 AUDIO
    TITLE "4:cjc005_0270"
    INDEX 01 00:40:30
  TRACK 34 AUDIO
    TITLE "0:"
    INDEX 01 00:41:28
  TRACK 35 AUDIO
    TITLE "5:cjc005_0271"
    INDEX 01 00:41:57
  TRACK 36 AUDIO
    TITLE "0:"
    INDEX 01 00:45:65
  TRACK 37 AUDIO
    TITLE "3:cjc005_0272"
    INDEX 01 00:46:53
  TRACK 38 AUDIO
    TITLE "0:"
    INDEX 01 00:47:70
  TRACK 39 AUDIO
    TITLE "4:cjc005_0273"
    INDEX 01 00:48:26
  TRACK 40 AUDIO
    TITLE "0:"
    INDEX 01 00:49:59
  TRACK 41 AUDIO
    TITLE "5:cjc005_0274"
    INDEX 01 00:50:11
  TRACK 42 AUDIO
    TITLE "0:"
    INDEX 01 00:52:69
  TRACK 43 AUDIO
    TITLE "3:cjc005_0275"
    INDEX 01 00:53:57
  TRACK 44 AUDIO
    TITLE "0:"
    INDEX 01 00:55:06
  TRACK 45 AUDIO
    TITLE "4:cjc005_0276"
    INDEX 01 00:55:40
  TRACK 46 AUDIO
    TITLE "0:"
    INDEX 01 00:57:17
  TRACK 47 AUDIO
    TITLE "5:cjc005_0277"
    INDEX 01 00:57:39
  TRACK 48 AUDIO
    TITLE "0:"
    INDEX 01 01:02:16
  TRACK 49 AUDIO
    TITLE "3:cjc005_0278"
    INDEX 01 01:03:00
  TRACK 50 AUDIO
    TITLE "0:"
    INDEX 01 01:04:11
  TRACK 51 AUDIO
    TITLE "4:cjc005_0279"
    INDEX 01 01:04:48
  TRACK 52 AUDIO
    TITLE "0:"
    INDEX 01 01:06:67
  TRACK 53 AUDIO
    TITLE "5:cjc005_0280"
    INDEX 01 01:07:17
  TRACK 54 AUDIO
    TITLE "0:"
    INDEX 01 01:11:29
  TRACK 55 AUDIO
    TITLE "3:cjc005_0281"
    INDEX 01 01:12:15
  TRACK 56 AUDIO
    TITLE "0:"
    INDEX 01 01:13:44
  TRACK 57 AUDIO
    TITLE "4:cjc005_0282"
    INDEX 01 01:13:69
  TRACK 58 AUDIO
    TITLE "0:"
    INDEX 01 01:14:72
  TRACK 59 AUDIO
    TITLE "5:cjc005_0283"
    INDEX 01 01:15:23
  TRACK 60 AUDIO
    TITLE "0:"
    INDEX 01 01:18:15
  TRACK 61 AUDIO
    TITLE "3:cjc005_0284"
    INDEX 01 01:18:66
  TRACK 62 AUDIO
    TITLE "0:"
    INDEX 01 01:20:12
  TRACK 63 AUDIO
    TITLE "4:cjc005_0285"
    INDEX 01 01:20:40
  TRACK 64 AUDIO
    TITLE "0:"
    INDEX 01 01:21:51
  TRACK 65 AUDIO
    TITLE "5:cjc005_0286"
    INDEX 01 01:22:05
  TRACK 66 AUDIO
    TITLE "0:"
    INDEX 01 01:24:73
  TRACK 67 AUDIO
    TITLE "3:cjc005_0287"
    INDEX 01 01:25:60
  TRACK 68 AUDIO
    TITLE "0:"
    INDEX 01 01:27:16
  TRACK 69 AUDIO
    TITLE "4:cjc005_0288"
    INDEX 01 01:27:48
  TRACK 70 AUDIO
    TITLE "0:"
    INDEX 01 01:28:57
  TRACK 71 AUDIO
    TITLE "5:cjc005_0289"
    INDEX 01 01:29:13
  TRACK 72 AUDIO
    TITLE "0:"
    INDEX 01 01:32:04
  TRACK 73 AUDIO
    TITLE "3:cjc005_0290"
    INDEX 01 01:32:57
  TRACK 74 AUDIO
    TITLE "0:"
    INDEX 01 01:34:61
  TRACK 75 AUDIO
    TITLE "4:cjc005_0291"
    INDEX 01 01:35:16
  TRACK 76 AUDIO
    TITLE "0:"
    INDEX 01 01:37:26
  TRACK 77 AUDIO
    TITLE "5:cjc005_0292"
    INDEX 01 01:37:52
  TRACK 78 AUDIO
    TITLE "0:"
    INDEX 01 01:41:40
  TRACK 79 AUDIO
    TITLE "3:cjc005_0293"
    INDEX 01 01:42:28
  TRACK 80 AUDIO
    TITLE "0:"
    INDEX 01 01:43:52
  TRACK 81 AUDIO
    TITLE "4:cjc005_0294"
    INDEX 01 01:44:07
  TRACK 82 AUDIO
    TITLE "0:"
    INDEX 01 01:45:30
  TRACK 83 AUDIO
    TITLE "5:cjc005_0295"
    INDEX 01 01:45:55
  TRACK 84 AUDIO
    TITLE "0:"
    INDEX 01 01:50:07
